HIERARCHY
ROOT joint_Root
{
	OFFSET 0.0 0.0 0.0
	CHANNELS 6 Xposition Yposition Zposition Zrotation Xrotation Yrotation 
	JOINT Hips
	{
		OFFSET 4.5925 91.4895 -427.239
		CHANNELS 6 Xposition Yposition Zposition Zrotation Xrotation Yrotation 
		JOINT Spine
		{
			OFFSET 15.7357 0.0 0.0
			CHANNELS 6 Xposition Yposition Zposition Zrotation Xrotation Yrotation 
			JOINT Chest
			{
				OFFSET 8.98455 -0.406207 0.0
				CHANNELS 6 Xposition Yposition Zposition Zrotation Xrotation Yrotation 
				JOINT Neck
				{
					OFFSET 16.3773 0.0 0.0
					CHANNELS 6 Xposition Yposition Zposition Zrotation Xrotation Yrotation 
					JOINT Head
					{
						OFFSET 6.45672 0.0 0.0
						CHANNELS 6 Xposition Yposition Zposition Zrotation Xrotation Yrotation 
						End Site
						{
							OFFSET 0.0 0.0 0.0
						}
					}
				}
				JOINT Shoulder_L
				{
					OFFSET 12.9942 -0.242716 4.98039
					CHANNELS 6 Xposition Yposition Zposition Zrotation Xrotation Yrotation 
					JOINT UpperArm_L
					{
						OFFSET 5.34809 0.0 0.0
						CHANNELS 6 Xposition Yposition Zposition Zrotation Xrotation Yrotation 
						JOINT LowerArm_L
						{
							OFFSET 24.3286 1.87007e-05 0.0
							CHANNELS 6 Xposition Yposition Zposition Zrotation Xrotation Yrotation 
							JOINT Hand_L
							{
								OFFSET 22.2916 0.0 0.0
								CHANNELS 6 Xposition Yposition Zposition Zrotation Xrotation Yrotation 
								End Site
								{
									OFFSET 0.0 0.0 0.0
								}
							}
						}
					}
				}
				JOINT Shoulder_R
				{
					OFFSET 12.9945 -0.242716 -4.98039
					CHANNELS 6 Xposition Yposition Zposition Zrotation Xrotation Yrotation 
					JOINT UpperArm_R
					{
						OFFSET -5.34813 0.0 0.0
						CHANNELS 6 Xposition Yposition Zposition Zrotation Xrotation Yrotation 
						JOINT LowerArm_R
						{
							OFFSET -24.3289 0.000322201 0.0
							CHANNELS 6 Xposition Yposition Zposition Zrotation Xrotation Yrotation 
							JOINT Hand_R
							{
								OFFSET -22.2915 -0.000108084 0.0
								CHANNELS 6 Xposition Yposition Zposition Zrotation Xrotation Yrotation 
								End Site
								{
									OFFSET 0.0 0.0 0.0
								}
							}
						}
					}
				}
			}
		}
		JOINT UpperLeg_L
		{
			OFFSET -2.19248 -6.46944 0.0
			CHANNELS 6 Xposition Yposition Zposition Zrotation Xrotation Yrotation 
			JOINT LowerLeg_L
			{
				OFFSET 39.0811 0.0 -1.23785e-05
				CHANNELS 6 Xposition Yposition Zposition Zrotation Xrotation Yrotation 
				JOINT Foot_L
				{
					OFFSET 40.9854 0.0 -1.26872e-05
					CHANNELS 6 Xposition Yposition Zposition Zrotation Xrotation Yrotation 
					JOINT Toes_L
					{
						OFFSET 11.7543 0.0 0.0
						CHANNELS 6 Xposition Yposition Zposition Zrotation Xrotation Yrotation 
						End Site
						{
							OFFSET 0.0 0.0 0.0
						}
					}
				}
			}
		}
		JOINT UpperLeg_R
		{
			OFFSET -2.19251 6.46944 0.0
			CHANNELS 6 Xposition Yposition Zposition Zrotation Xrotation Yrotation 
			JOINT LowerLeg_R
			{
				OFFSET -39.0811 -0.00228153 -0.0401928
				CHANNELS 6 Xposition Yposition Zposition Zrotation Xrotation Yrotation 
				JOINT Foot_R
				{
					OFFSET -40.9854 0.0 0.0
					CHANNELS 6 Xposition Yposition Zposition Zrotation Xrotation Yrotation 
					JOINT Toes_R
					{
						OFFSET -11.7543 0.0 0.0
						CHANNELS 6 Xposition Yposition Zposition Zrotation Xrotation Yrotation 
						End Site
						{
							OFFSET 0.0 0.0 0.0
						}
					}
				}
			}
		}
	}
}
MOTION
Frames:	8
Frame Time:	0.0333333
0.000000 0.000000 0.000000 0.000000 0.000000 -0.000000 1.488460 81.064600 -1.486820 87.204300 -10.536100 8.301590 15.735700 0.000005 -0.000001 95.371100 80.393200 -95.438100 8.984550 -0.406207 -0.000000 11.368200 1.782180 -0.311356 16.377300 -0.000001 -0.000001 -3.734940 -1.468590 1.853640 6.456720 -0.000001 -0.000000 -6.772170 -2.693100 5.723330 12.994200 -0.242716 4.980390 -91.678300 5.216470 -72.138300 5.348090 -0.000007 -0.000001 -67.976500 26.881700 -9.065260 24.328600 0.000019 0.000005 4.872920 12.217200 -21.942500 22.291600 -0.000001 0.000005 12.363800 5.300470 0.044324 12.994500 -0.242716 -4.980390 88.593500 8.248350 -80.288200 -5.348130 -0.000001 -0.000004 -60.995800 32.768800 -10.125800 -24.328900 0.000322 -0.000009 -0.472355 -0.678319 -34.759600 -22.291500 -0.000108 -0.000004 20.615700 5.423450 -3.715480 -2.192480 -6.469440 -0.000000 -173.719000 -16.529400 -18.664800 39.081100 -0.000007 -0.000012 -0.463672 0.207386 65.903600 40.985400 -0.000006 -0.000013 1.078560 0.855464 -88.238700 11.754300 -0.000000 0.000003 -0.000404 -0.003336 -16.700500 -2.192510 6.469440 -0.000001 177.937000 10.466100 159.022000 -39.081100 -0.002282 -0.040193 0.066128 -0.028865 65.372400 -40.985400 0.000008 0.000006 7.297650 8.377500 -85.370500 -11.754300 -0.000006 -0.000006 -0.807187 -0.992984 -17.149000
0.000000 0.000000 0.000000 0.000000 0.000000 -0.000000 1.973640 82.581100 -0.861579 87.266700 -13.182100 8.271760 15.735700 0.000005 -0.000001 93.391600 80.884000 -92.829800 8.984550 -0.406207 -0.000000 10.430300 1.084310 1.023820 16.377300 -0.000001 -0.000001 -3.145670 -0.234561 1.900200 6.456720 -0.000001 -0.000000 -5.897620 -0.358263 4.194550 12.994200 -0.242716 4.980390 -91.437000 4.396890 -71.879900 5.348090 -0.000007 -0.000001 -65.596600 24.778200 -10.955700 24.328600 0.000019 0.000005 5.674990 13.637500 -22.851900 22.291600 -0.000001 0.000005 10.210300 5.352100 -1.440800 12.994500 -0.242716 -4.980390 88.442800 8.706870 -79.819300 -5.348130 -0.000001 -0.000004 -61.679300 31.620700 -9.786960 -24.328900 0.000322 -0.000009 -0.096364 -0.149665 -32.473600 -22.291500 -0.000108 -0.000004 20.748600 5.417370 -3.510600 -2.192480 -6.469440 -0.000000 -174.128000 -17.332900 -15.720400 39.081100 -0.000007 -0.000012 -0.453027 0.245810 61.517000 40.985400 -0.000006 -0.000013 0.372523 -0.811449 -86.770200 11.754300 -0.000000 0.000003 -0.000401 -0.003312 -16.699700 -2.192510 6.469440 -0.000001 177.659000 8.585950 161.170000 -39.081100 -0.002282 -0.040193 0.044905 -0.022966 61.163400 -40.985400 0.000008 0.000006 6.933630 9.525640 -83.412700 -11.754300 -0.000006 -0.000006 -0.670416 -0.822603 -17.276300
0.000000 0.000000 0.000000 0.000000 0.000000 -0.000000 2.363920 84.748200 -0.131410 87.570200 -14.750300 8.232830 15.735700 0.000005 -0.000001 91.333300 81.605800 -90.090800 8.984550 -0.406207 -0.000000 9.014740 0.402117 2.451070 16.377300 -0.000001 -0.000001 -1.462630 0.740186 1.611720 6.456720 -0.000001 -0.000000 -4.667750 1.800350 2.380600 12.994200 -0.242716 4.980390 -91.062300 3.142160 -71.310400 5.348090 -0.000007 -0.000001 -59.378200 18.189800 -17.987800 24.328600 0.000019 0.000005 6.368810 14.613400 -23.865000 22.291600 -0.000001 0.000005 10.402900 5.343440 -1.185640 12.994500 -0.242716 -4.980390 88.329600 8.589210 -78.950900 -5.348130 -0.000001 -0.000004 -63.539700 29.521300 -6.844280 -24.328900 0.000322 -0.000009 -0.225544 -0.361073 -31.866100 -22.291500 -0.000108 -0.000004 20.875300 5.420900 -3.629570 -2.192480 -6.469440 -0.000000 -174.840000 -17.442900 -11.837300 39.081100 -0.000007 -0.000012 -0.431302 0.304801 54.752200 40.985400 -0.000006 -0.000013 -0.019580 -2.098350 -84.041700 11.754300 -0.000000 0.000003 -0.000317 -0.002724 -16.678900 -2.192510 6.469440 -0.000001 176.952000 8.119070 164.552000 -39.081100 -0.002282 -0.040193 0.030198 -0.019057 54.755400 -40.985400 0.000008 0.000006 6.518590 11.135200 -80.461900 -11.754300 -0.000006 -0.000006 -0.481690 -0.592651 -17.533400
0.000000 0.000000 0.000000 0.000000 0.000000 -0.000000 2.540300 86.956500 0.549157 87.732900 -15.557400 7.846190 15.735700 0.000005 -0.000001 90.162400 82.520000 -88.260900 8.984550 -0.406207 -0.000000 7.196250 0.032846 3.796950 16.377300 -0.000001 -0.000001 0.536955 1.123130 1.299400 6.456720 -0.000001 -0.000000 -2.898820 3.427180 1.018650 12.994200 -0.242716 4.980390 -90.591600 1.780840 -71.625000 5.348090 -0.000007 -0.000001 -52.622400 5.747480 -27.617500 24.328600 0.000019 0.000005 5.649650 12.375700 -24.780400 22.291600 -0.000001 0.000005 12.468400 5.319410 -0.483707 12.994500 -0.242716 -4.980390 88.235400 8.084660 -77.643500 -5.348130 -0.000001 -0.000004 -65.120100 27.719800 -3.122220 -24.328900 0.000322 -0.000009 -0.721510 -1.155310 -31.949800 -22.291500 -0.000108 -0.000004 20.137000 5.429840 -3.936480 -2.192480 -6.469440 -0.000000 -175.247000 -17.701700 -7.945100 39.081100 -0.000007 -0.000012 -0.352724 0.328086 47.073300 40.985400 -0.000006 -0.000013 -0.046569 -2.537350 -80.704000 11.754300 -0.000000 0.000003 -0.000271 -0.002387 -16.666800 -2.192510 6.469440 -0.000001 176.420000 8.811210 168.145000 -39.081100 -0.002282 -0.040193 0.019309 -0.014741 47.438700 -40.985400 0.000008 0.000006 6.055640 12.989800 -76.972800 -11.754300 -0.000006 -0.000006 -0.272136 -0.346470 -17.914000
0.000000 0.000000 0.000000 0.000000 0.000000 -0.000000 2.571110 88.666700 0.991617 87.444300 -15.451000 6.718560 15.735700 0.000005 -0.000001 86.373200 83.539000 -83.921000 8.984550 -0.406207 -0.000000 5.153960 -0.871467 4.938090 16.377300 -0.000001 -0.000001 2.064430 1.237480 1.511810 6.456720 -0.000001 -0.000000 -1.590760 4.586080 0.134992 12.994200 -0.242716 4.980390 -90.022800 0.071342 -72.664600 5.348090 -0.000007 -0.000001 -46.328400 -9.162860 -37.405900 24.328600 0.000019 0.000005 4.589190 8.742230 -27.861000 22.291600 -0.000001 0.000005 15.451300 5.311450 -0.249618 12.994500 -0.242716 -4.980390 88.192200 7.429390 -76.281800 -5.348130 -0.000001 -0.000004 -65.920800 26.865700 -0.153304 -24.328900 0.000322 -0.000009 -0.864184 -1.388270 -31.873800 -22.291500 -0.000108 -0.000004 18.867300 5.434230 -4.085240 -2.192480 -6.469440 -0.000000 -175.250000 -17.831300 -5.505600 39.081100 -0.000007 -0.000012 -0.276993 0.324396 40.493700 40.985400 -0.000006 -0.000013 0.157232 -2.202700 -77.649700 11.754300 -0.000000 0.000003 -0.000224 -0.002037 -16.654100 -2.192510 6.469440 -0.000001 176.349000 11.071200 170.789000 -39.081100 -0.002282 -0.040193 0.010858 -0.008799 40.748600 -40.985400 0.000008 0.000006 5.674000 15.308800 -73.801800 -11.754300 -0.000006 -0.000006 -0.245798 -0.317338 -18.053000
0.000000 0.000000 0.000000 0.000000 0.000000 -0.000000 2.626950 89.774100 1.204440 87.036300 -15.712300 5.271020 15.735700 0.000005 -0.000001 80.151800 84.264200 -77.220200 8.984550 -0.406207 -0.000000 3.598100 -2.066060 5.922160 16.377300 -0.000001 -0.000001 2.431620 1.306080 1.733790 6.456720 -0.000001 -0.000000 -1.190550 5.412720 -0.205421 12.994200 -0.242716 4.980390 -89.260800 -2.572570 -73.955800 5.348090 -0.000007 -0.000001 -41.197300 -25.111400 -44.918300 24.328600 0.000019 0.000005 2.338280 3.503430 -33.816500 22.291600 -0.000001 0.000005 18.250600 5.350170 -1.361900 12.994500 -0.242716 -4.980390 88.251600 6.743410 -75.428000 -5.348130 -0.000001 -0.000004 -65.382500 26.720600 1.386810 -24.328900 0.000322 -0.000009 -0.629558 -1.003640 -32.057300 -22.291500 -0.000108 -0.000004 18.221700 5.427280 -3.845980 -2.192480 -6.469440 -0.000000 -175.232000 -18.231300 -4.406810 39.081100 -0.000007 -0.000012 -0.223438 0.310100 35.774500 40.985400 -0.000006 -0.000013 0.301269 -1.948930 -75.402600 11.754300 -0.000000 0.000003 -0.000190 -0.001773 -16.644600 -2.192510 6.469440 -0.000001 176.575000 13.310800 172.138000 -39.081100 -0.002282 -0.040193 0.005851 -0.003566 35.694200 -40.985400 0.000008 0.000006 5.831320 17.778000 -71.557800 -11.754300 -0.000006 -0.000006 -0.199484 -0.263675 -18.063600
0.000000 0.000000 0.000000 0.000000 0.000000 -0.000000 2.903780 90.410200 1.383750 86.650700 -17.195200 3.855240 15.735700 0.000005 -0.000001 74.628800 84.597700 -71.329800 8.984550 -0.406207 -0.000000 2.750530 -3.005580 6.664680 16.377300 -0.000001 -0.000001 1.996130 1.662750 1.927630 6.456720 -0.000001 -0.000000 -1.726280 6.114220 0.301309 12.994200 -0.242716 4.980390 -88.376100 -5.669140 -73.989700 5.348090 -0.000007 -0.000001 -36.600500 -40.690200 -50.911200 24.328600 0.000019 0.000005 0.692536 0.795670 -41.149800 22.291600 -0.000001 0.000005 20.974600 5.397220 -2.831240 12.994500 -0.242716 -4.980390 88.180900 6.904710 -75.201500 -5.348130 -0.000001 -0.000004 -62.979700 26.692400 1.733750 -24.328900 0.000322 -0.000009 -0.537843 -0.840312 -32.570200 -22.291500 -0.000108 -0.000004 18.637900 5.428250 -3.879180 -2.192480 -6.469440 -0.000000 -175.622000 -18.426000 -4.060560 39.081100 -0.000007 -0.000012 -0.194431 0.302787 32.706400 40.985400 -0.000006 -0.000013 0.134144 -3.187810 -74.078000 11.754300 -0.000000 0.000003 -0.000192 -0.001785 -16.645000 -2.192510 6.469440 -0.000001 176.734000 14.712600 172.604000 -39.081100 -0.002282 -0.040193 -0.000743 0.006447 32.077000 -40.985400 0.000008 0.000006 5.899680 20.709700 -70.196700 -11.754300 -0.000006 -0.000006 -0.002330 -0.032779 -17.906000
0.000000 0.000000 0.000000 0.000000 0.000000 -0.000000 3.340520 90.732500 1.624650 86.260000 -19.964400 2.589010 15.735700 0.000005 -0.000001 73.341700 84.954000 -69.696300 8.984550 -0.406207 -0.000000 2.013400 -3.073830 7.339380 16.377300 -0.000001 -0.000001 1.668410 2.635560 1.224660 6.456720 -0.000001 -0.000000 -2.249020 6.151250 1.616770 12.994200 -0.242716 4.980390 -87.177000 -8.811750 -72.164400 5.348090 -0.000007 -0.000001 -29.510500 -51.926500 -53.259700 24.328600 0.000019 0.000005 -0.355277 -0.322437 -47.689400 22.291600 -0.000001 0.000005 25.702500 5.449490 -4.604710 12.994500 -0.242716 -4.980390 87.978700 7.579620 -75.020400 -5.348130 -0.000001 -0.000004 -59.705600 25.897000 2.127480 -24.328900 0.000322 -0.000009 -0.147449 -0.222126 -33.403600 -22.291500 -0.000108 -0.000004 19.295700 5.425590 -3.788580 -2.192480 -6.469440 -0.000000 -176.095000 -19.381500 -3.970870 39.081100 -0.000007 -0.000012 -0.176787 0.296043 30.844600 40.985400 -0.000006 -0.000013 -0.095918 -5.038070 -73.517600 11.754300 -0.000000 0.000003 -0.000204 -0.001882 -16.648500 -2.192510 6.469440 -0.000001 176.809000 15.261600 172.440000 -39.081100 -0.002282 -0.040193 -0.009084 0.021735 29.678700 -40.985400 0.000008 0.000006 5.706760 24.062400 -69.269900 -11.754300 -0.000006 -0.000006 -0.002108 -0.030056 -17.795300
